<?xml version="1.0" encoding="iso-8859-1"?>
<!-- Generator: Adobe Illustrator 19.0.0, SVG Export Plug-In . SVG Version: 6.00 Build 0)  -->
<svg version="1.1" id="Layer_1" xmlns="http://www.w3.org/2000/svg" xmlns:xlink="http://www.w3.org/1999/xlink" x="0px" y="0px"
	 viewBox="0 0 390.723 390.723" style="enable-background:new 0 0 390.723 390.723;" xml:space="preserve">
<path style="fill:#56ACE0;" d="M361.147,357.689V68.848c0-4.331-2.715-8.145-6.529-9.762
	c-53.075-24.954-106.731-37.43-159.289-37.43S89.115,34.133,35.976,59.087c-3.814,1.616-6.529,5.947-6.529,9.762v288.84
	c0,5.947,4.848,10.861,10.861,10.861h32.517V172.347c0-5.947,4.848-10.861,10.861-10.861h222.772
	c5.948,0,10.861,4.848,10.861,10.861v196.202h32.517C356.299,368.549,361.147,363.636,361.147,357.689z M318.352,114.36
	c0,12.477-10.279,22.238-22.238,22.238H96.162c-12.477,0-22.238-10.279-22.238-22.238V77.511c0-12.477,10.279-22.238,22.238-22.238
	h199.434c12.477,0,22.238,10.279,22.238,22.238v36.848H318.352z"/>
<path style="fill:#FFC10D;" d="M295.596,76.929H96.162c-0.517,0-0.517,0.517-0.517,0.517v36.848c0,0.517,0.517,0.517,0.517,0.517
	h199.434c0.517,0,0.517-0.517,0.517-0.517V77.446C296.695,76.929,296.113,76.929,295.596,76.929z"/>
<g>
	<rect x="94.545" y="309.463" style="fill:#FFFFFF;" width="201.051" height="20.622"/>
	<rect x="94.545" y="224.905" style="fill:#FFFFFF;" width="201.051" height="20.622"/>
	<rect x="94.545" y="267.184" style="fill:#FFFFFF;" width="201.051" height="20.622"/>
	<rect x="94.545" y="351.741" style="fill:#FFFFFF;" width="201.051" height="16.808"/>
	<rect x="94.545" y="183.208" style="fill:#FFFFFF;" width="201.051" height="19.523"/>
</g>
<g>
	<path style="fill:#194F82;" d="M363.863,39.564C308.073,12.994,251.184,0,195.329,0S82.586,12.994,26.796,39.564
		C15.418,44.994,7.855,56.372,7.855,69.366v288.84c0,17.907,14.61,32.517,32.517,32.517h309.98c17.907,0,32.517-14.61,32.517-32.517
		V68.848C382.869,56.372,375.24,44.994,363.863,39.564z M296.113,267.184v20.622H94.545v-20.622L296.113,267.184L296.113,267.184z
		 M94.545,245.527v-20.622h201.051v20.622H94.545z M296.113,309.463v20.622H94.545v-20.622H296.113z M296.113,351.741v16.808H94.545
		v-16.808H296.113z M296.113,203.248H94.545v-19.523h201.051v19.523H296.113z M317.834,368.549V172.347
		c0-5.947-4.848-10.861-10.861-10.861H83.685c-5.947,0-10.861,4.848-10.861,10.861v196.202H40.307
		c-5.947,0-10.861-4.849-10.861-10.861V68.848c0-4.331,2.715-8.145,6.529-9.762c53.139-24.954,106.796-37.366,159.354-37.366
		s106.214,12.477,159.354,37.366c3.814,1.616,6.529,5.947,6.529,9.762v288.84c0,5.947-4.848,10.861-10.861,10.861H317.834z"/>
	<path style="fill:#194F82;" d="M295.596,55.273H96.162c-12.477,0-22.238,10.279-22.238,22.238v36.848
		c0,12.477,10.279,22.238,22.238,22.238h199.434c12.477,0,22.238-10.279,22.238-22.238V77.511
		C318.352,65.034,308.073,55.273,295.596,55.273z M296.695,114.36c0,0.517-0.517,0.517-0.517,0.517H96.162
		c-0.517,0-0.517-0.517-0.517-0.517V77.511c0-0.517,0.517-0.517,0.517-0.517h199.434c0.517,0,0.517,0.517,0.517,0.517v36.848
		H296.695z"/>
</g>
<g>
</g>
<g>
</g>
<g>
</g>
<g>
</g>
<g>
</g>
<g>
</g>
<g>
</g>
<g>
</g>
<g>
</g>
<g>
</g>
<g>
</g>
<g>
</g>
<g>
</g>
<g>
</g>
<g>
</g>
</svg>
