<?xml version="1.0" encoding="UTF-8"?>
<!DOCTYPE svg PUBLIC "-//W3C//DTD SVG 1.1//EN" "http://www.w3.org/Graphics/SVG/1.1/DTD/svg11.dtd">
<!-- Creator: CorelDRAW -->
<svg xmlns="http://www.w3.org/2000/svg" xml:space="preserve" width="8.5in" height="11in" style="shape-rendering:geometricPrecision; text-rendering:geometricPrecision; image-rendering:optimizeQuality; fill-rule:evenodd; clip-rule:evenodd"
viewBox="0 0 8.5 11"
 xmlns:xlink="http://www.w3.org/1999/xlink"
 version="1.1">
 <defs>
  <style type="text/css">
   <![CDATA[
    .str0 {stroke:#373435;stroke-width:0.333335}
    .fil2 {fill:none}
    .fil1 {fill:black}
    .fil0 {fill:white}
   ]]>
  </style>
 </defs>
 <g id="Layer_x0020_1">
  <metadata id="CorelCorpID_0Corel-Layer"/>
  <path class="fil0" d="M5.95937 2.47029c0,-0.412831 -0.335854,-0.748685 -0.748685,-0.748685 -0.348453,0 -0.649327,0.236496 -0.729094,0.573756 -0.0517795,0.211319 -0.370835,0.275677 -0.460409,0 -0.0797677,-0.33726 -0.379236,-0.573756 -0.729094,-0.573756 -0.412831,0 -0.750091,0.335854 -0.750091,0.748685 0,0.850839 1.13212,1.83043 1.70728,2.23766 0.577972,-0.407248 1.71009,-1.38403 1.71009,-2.23766z"/>
  <path class="fil1" d="M4.80901 1.66762c-0.192673,0 -0.36713,0.0889764 -0.479933,0.231201 -0.112799,-0.142224 -0.287256,-0.231201 -0.479929,-0.231201 -0.337709,0 -0.611646,0.274642 -0.611646,0.611642 0,0.68452 0.985083,1.3347 1.02642,1.36272 0.0392323,0.0245236 0.093185,0.0231142 0.128917,0 0.0420394,-0.0273228 1.02642,-0.678213 1.02642,-1.36272 0.000692913,-0.337 -0.272551,-0.611642 -0.610248,-0.611642zm-1.3347 0.610949c0,-0.206689 0.16815,-0.374839 0.375539,-0.374839 0.174457,0 0.325094,0.118406 0.365031,0.28726 0.0441417,0.13802 0.204587,0.105799 0.230508,0 0.039937,-0.168854 0.18987,-0.28726 0.365031,-0.28726 0.206689,0 0.374835,0.16815 0.374835,0.374839 0,0.42598 -0.566807,0.916429 -0.854768,1.12031 -0.28937,-0.20389 -0.856177,-0.692929 -0.856177,-1.12031z"/>
  <path class="fil0" d="M7.9675 7.09813c0.0405866,-0.0419724 0.061563,-0.0951614 0.061563,-0.153933l0 -2.93036c0,-0.21552 -0.176315,-0.391835 -0.391835,-0.391835 -0.21552,0 -0.391835,0.176315 -0.391835,0.391835l0 1.1503c0.139949,0.151142 0.228094,0.352654 0.228094,0.573756l0 0.966996c0,0.130142 -0.104945,0.236496 -0.236496,0.236496 -0.130142,0 -0.236496,-0.104945 -0.236496,-0.236496l0 -0.966996c0,-0.202921 -0.165122,-0.368043 -0.368043,-0.368043 -0.202921,0 -0.368043,0.165122 -0.368043,0.368043l0 0.939008c0,0.0587717 -0.0223819,0.114752 -0.061563,0.159539l-0.839646 0.922209c-0.152524,0.167937 -0.236496,0.384843 -0.236496,0.611528l0 0.682902c0,0.121744 0.100768,0.222512 0.222512,0.222512l1.05935 -3.93701e-006c0.121744,0 0.222512,-0.100768 0.222512,-0.222512l0 -0.279874c0,-0.17913 0.0685787,-0.349858 0.191728,-0.48l1.14469 -1.19507z"/>
  <path class="fil1" d="M7.63726 3.15039c-0.477189,0 -0.863437,0.387634 -0.863437,0.863437l0 0.894217c-0.0447874,-0.00839764 -0.093752,-0.0111929 -0.14274,-0.0111929 -0.463205,0 -0.839646,0.376441 -0.839646,0.839646l0 0.846638 -0.778059 0.856445c-0.230909,0.254701 -0.359646,0.584949 -0.359646,0.930606l0 0.682902c0,0.383433 0.310677,0.694114 0.694114,0.694114l1.06075 3.93701e-006c0.383433,0 0.694114,-0.310677 0.694114,-0.694114l0 -0.279874c0,-0.0573661 0.0223819,-0.111957 0.061563,-0.153933l1.14193 -1.19788c0.12315,-0.130142 0.191728,-0.299465 0.191728,-0.48l0 -2.92755c0.00277165,-0.477236 -0.384862,-0.863465 -0.860665,-0.863465zm-1.00339 5.9027c0,0.121744 -0.100768,0.222512 -0.222512,0.222512l-1.06074 0c-0.121744,0 -0.222512,-0.100768 -0.222512,-0.222512l0 -0.684307c0,-0.228094 0.0839685,-0.44502 0.236496,-0.611528l0.83824 -0.922209c0.0405866,-0.0433819 0.061563,-0.100768 0.061563,-0.159539l0 -0.939008c0,-0.202921 0.165122,-0.368043 0.368043,-0.368043 0.202921,0 0.368043,0.165122 0.368043,0.368043l0 0.966996c0,0.130142 0.104945,0.236496 0.236496,0.236496 0.130142,0 0.236496,-0.104945 0.236496,-0.236496l0 -0.966996c0,-0.222512 -0.0867598,-0.422614 -0.228094,-0.573756l0 -1.14751c0,-0.21552 0.176315,-0.391835 0.391835,-0.391835 0.21552,0 0.391835,0.176315 0.391835,0.391835l0 2.93036c0,0.0573858 -0.0223819,0.111957 -0.061563,0.153933l-1.14472 1.19788c-0.12315,0.130142 -0.191728,0.299465 -0.191728,0.48l0 0.275677 0.00282283 3.93701e-006z"/>
  <path class="fil0" d="M2.30132 6.83503c-0.0405866,-0.0433819 -0.061563,-0.100768 -0.061563,-0.159539l0 -0.939008c0,-0.202921 -0.165122,-0.368043 -0.368043,-0.368043 -0.202921,0 -0.368043,0.165122 -0.368043,0.368043l0 0.966996c0,0.130142 -0.104945,0.236496 -0.236496,0.236496 -0.131551,0 -0.236496,-0.104969 -0.236496,-0.236496l0 -0.966996c0,-0.222512 0.0867598,-0.422614 0.228094,-0.573756l0 -1.14751c0,-0.21552 -0.176315,-0.391835 -0.391835,-0.391835 -0.21552,0 -0.391835,0.176315 -0.391835,0.391835l0 2.93036c0,0.0573858 0.0223819,0.111957 0.061563,0.153933l1.14193 1.19788c0.12315,0.130142 0.191728,0.299465 0.191728,0.48l0 0.279874c0,0.121744 0.100768,0.222512 0.222512,0.222512l1.06076 7.87402e-006c0.121744,0 0.222512,-0.100768 0.222512,-0.222512l0 -0.684307c0,-0.228094 -0.0839685,-0.44502 -0.236496,-0.611551l-0.838283 -0.926386z"/>
  <path class="fil1" d="M3.48942 7.43957l-0.776673 -0.855035 0 -0.846638c0,-0.463205 -0.376441,-0.839646 -0.839646,-0.839646 -0.0489882,0 -0.0951614,0.00279134 -0.14274,0.0111929l0 -0.894217c0,-0.477189 -0.387634,-0.863437 -0.863437,-0.863437 -0.477193,-0.0013937 -0.864827,0.384835 -0.864827,0.862043l0 2.93036c0,0.17913 0.0685787,0.349858 0.191728,0.48l1.14193 1.19788c0.0405866,0.0419724 0.061563,0.0951614 0.061563,0.153933l0 0.279874c0,0.383433 0.310677,0.694114 0.694114,0.694114l1.06075 3.93701e-006c0.383433,0 0.694114,-0.310677 0.694114,-0.694114l0 -0.684307c0.00276772,-0.347043 -0.125988,-0.677315 -0.356874,-0.932012zm-0.113366 1.61353c0,0.121744 -0.100768,0.222512 -0.222512,0.222512l-1.05934 0c-0.121744,0 -0.222512,-0.100768 -0.222512,-0.222512l0 -0.279874c0,-0.17913 -0.0685787,-0.349858 -0.191728,-0.48l-1.14193 -1.19788c-0.0405866,-0.0419724 -0.061563,-0.0951614 -0.061563,-0.153933l0 -2.92755c0,-0.21552 0.176315,-0.391835 0.391835,-0.391835 0.21552,0 0.391835,0.176315 0.391835,0.391835l0 1.1503c-0.139949,0.151142 -0.228094,0.352654 -0.228094,0.573756l0 0.966996c0,0.130142 0.104945,0.236496 0.236496,0.236496 0.131551,0 0.236496,-0.104945 0.236496,-0.236496l0 -0.966996c0,-0.202921 0.165122,-0.368043 0.368043,-0.368043 0.202921,0 0.368043,0.165122 0.368043,0.368043l0 0.939008c0,0.0587717 0.0223819,0.114752 0.061563,0.159539l0.83824 0.922209c0.152524,0.167937 0.236496,0.384843 0.236496,0.611528l0 0.682902 -0.00137008 -7.87402e-006z"/>
  <g id="_362234352">
  </g>
  <g id="_362235576">
  </g>
  <g id="_362236008">
  </g>
  <g id="_362235936">
  </g>
  <g id="_362236296">
  </g>
  <g id="_362236416">
  </g>
  <g id="_362237088">
  </g>
  <g id="_362237856">
  </g>
  <g id="_362237808">
  </g>
  <g id="_362237400">
  </g>
  <g id="_362238432">
  </g>
  <g id="_362238192">
  </g>
  <g id="_362239320">
  </g>
  <g id="_362239080">
  </g>
  <g id="_362239008">
  </g>
  <rect class="fil2 str0" x="2.70766" y="1.27828" width="3.24144" height="2.77091"/>
 </g>
</svg>
